HIERARCHY
ROOT SimulationBone
{
	OFFSET 0.000000 0.000000 0.000000
	CHANNELS 6 Xposition Yposition Zposition Zrotation Yrotation Xrotation 
	JOINT Hips
	{
		OFFSET 0.000000 0.000000 0.000000
		CHANNELS 6 Xposition Yposition Zposition Zrotation Yrotation Xrotation 
		JOINT LeftUpLeg
		{
			OFFSET 0.103459 1.857814 10.548504
			CHANNELS 3 Zrotation Yrotation Xrotation
			JOINT LeftLeg
			{
				OFFSET 43.500000 -0.000004 -0.000011
				CHANNELS 3 Zrotation Yrotation Xrotation
				JOINT LeftFoot
				{
					OFFSET 42.372196 -0.000004 0.000004
					CHANNELS 3 Zrotation Yrotation Xrotation
					JOINT LeftToe
					{
						OFFSET 17.300003 0.000001 -0.000008
						CHANNELS 3 Zrotation Yrotation Xrotation
						End Site
						{
							OFFSET 0.000000 0.000000 0.000000
						}
					}
				}
			}
		}
		JOINT RightUpLeg
		{
			OFFSET 0.103457 1.857841 -10.548511
			CHANNELS 3 Zrotation Yrotation Xrotation
			JOINT RightLeg
			{
				OFFSET 43.500042 -0.000038 0.000000
				CHANNELS 3 Zrotation Yrotation Xrotation
				JOINT RightFoot
				{
					OFFSET 42.372269 -0.000023 0.000011
					CHANNELS 3 Zrotation Yrotation Xrotation
					JOINT RightToe
					{
						OFFSET 17.300003 -0.000001 0.000023
						CHANNELS 3 Zrotation Yrotation Xrotation
						End Site
						{
							OFFSET 0.000000 0.000000 0.000000
						}
					}
				}
			}
		}
		JOINT Spine
		{
			OFFSET 6.901971 -2.603744 -0.000012
			CHANNELS 3 Zrotation Yrotation Xrotation
			JOINT Spine1
			{
				OFFSET 12.588097 -0.000002 0.000018
				CHANNELS 3 Zrotation Yrotation Xrotation
				JOINT Spine2
				{
					OFFSET 12.343208 0.000014 -0.000019
					CHANNELS 3 Zrotation Yrotation Xrotation
					JOINT Neck
					{
						OFFSET 25.832897 0.000008 0.000016
						CHANNELS 3 Zrotation Yrotation Xrotation
						JOINT Head
						{
							OFFSET 11.766600 -0.000006 0.000008
							CHANNELS 3 Zrotation Yrotation Xrotation
							End Site
							{
								OFFSET 0.000000 0.000000 0.000000
							}
						}
					}
					JOINT LeftShoulder
					{
						OFFSET 19.745909 -1.480356 6.000120
						CHANNELS 3 Zrotation Yrotation Xrotation
						JOINT LeftArm
						{
							OFFSET 11.284115 -0.000000 -0.000025
							CHANNELS 3 Zrotation Yrotation Xrotation
							JOINT LeftForeArm
							{
								OFFSET 33.000057 0.000003 0.000029
								CHANNELS 3 Zrotation Yrotation Xrotation
								JOINT LeftHand
								{
									OFFSET 25.200006 0.000029 0.000011
									CHANNELS 3 Zrotation Yrotation Xrotation
									End Site
									{
										OFFSET 0.000000 0.000000 0.000000
									}
								}
							}
						}
					}
					JOINT RightShoulder
					{
						OFFSET 19.746088 -1.480379 -6.000049
						CHANNELS 3 Zrotation Yrotation Xrotation
						JOINT RightArm
						{
							OFFSET 11.284159 -0.000019 -0.000011
							CHANNELS 3 Zrotation Yrotation Xrotation
							JOINT RightForeArm
							{
								OFFSET 33.000076 -0.000001 0.000001
								CHANNELS 3 Zrotation Yrotation Xrotation
								JOINT RightHand
								{
									OFFSET 25.199781 0.000139 0.000430
									CHANNELS 3 Zrotation Yrotation Xrotation
									End Site
									{
										OFFSET 0.000000 0.000000 0.000000
									}
								}
							}
						}
					}
				}
			}
		}
	}
}
MOTION
Frames: 13
Frame Time: 0.016667
79.611238 0.000000 -510.766625 0.000000 -10.593883 0.000000 -1.010896 91.103661 -1.266811 97.469033 -0.237963 178.718984 165.435159 -6.280504 171.490190 -68.013465 -3.573258 4.278533 76.127949 -3.344949 -1.495673 21.454558 0.003092 0.000000 173.711668 -1.536195 -175.880554 -31.130970 0.093157 -1.411721 83.122814 0.271988 -3.177202 21.454558 -0.003108 -0.000018 11.565728 1.071318 -0.086793 13.120436 2.145453 -0.051392 12.802082 2.145241 -0.064344 7.635292 10.803027 3.530702 -26.975756 -15.755021 12.158308 160.032967 -84.256923 18.526160 -15.583402 63.566315 27.849074 -39.499191 -18.307468 1.660240 1.476169 -7.757286 7.007371 165.424886 74.504833 -13.510667 -16.317690 -52.323722 -21.206121 -38.610157 21.046647 -1.842783 6.419223 10.792441 -5.792223 
80.980804 0.000000 -510.639303 0.000000 -10.804342 0.000000 -0.989485 91.120590 -1.075549 97.458485 0.034103 179.041785 164.368465 -6.359462 172.162119 -65.663185 -4.154705 3.648918 77.819096 -2.597313 -0.547131 21.454560 0.003093 0.000001 174.688394 -1.750767 -175.727549 -31.015527 0.233108 -1.506277 83.514696 0.353925 -3.132024 21.454556 -0.003108 -0.000017 11.526149 1.093216 -0.004500 13.042903 2.179846 0.114438 12.724555 2.180636 0.101275 7.722057 10.671087 3.377955 -26.812611 -15.581025 11.865606 162.628056 -84.254310 15.911381 -14.745573 63.669605 28.558070 -40.042727 -18.358344 1.678105 1.573029 -8.576452 6.374946 165.420454 74.472133 -13.516560 -16.326620 -52.124484 -21.518307 -39.455049 21.140587 -1.871224 6.139841 10.617209 -6.190407 
82.371475 0.000000 -510.514092 0.000000 -11.007121 0.000000 -1.005739 91.132492 -0.892204 97.397934 0.236863 179.286575 163.446318 -6.416305 172.600315 -62.678357 -4.607322 3.073697 78.899359 -2.112334 -0.331351 21.454558 0.003093 0.000001 175.641470 -1.902207 -175.742994 -30.833146 0.424873 -1.539027 83.929104 0.384481 -3.119480 21.454557 -0.003109 -0.000017 11.484717 1.093500 0.078078 12.961550 2.171235 0.278359 12.643213 2.173015 0.265245 7.817025 10.513008 3.241871 -26.770994 -15.356929 11.585590 164.989090 -84.184611 13.534202 -14.035981 63.693657 29.185852 -40.489155 -18.418799 1.693858 1.522973 -9.270859 5.872147 165.472697 74.422550 -13.465178 -16.408321 -51.866007 -21.794134 -40.399649 21.240652 -1.903689 6.049829 10.207736 -6.537266 
83.781910 0.000000 -510.390721 0.000000 -11.201950 0.000000 -1.045313 91.122665 -0.713185 97.303887 0.423467 179.498611 162.668796 -6.450712 172.845289 -59.192319 -4.899622 2.506334 79.554354 -1.733859 -0.454246 21.454554 0.003093 -0.000000 176.584090 -2.040586 -175.826531 -30.609319 0.632524 -1.539812 84.377239 0.388219 -3.129826 21.454558 -0.003109 -0.000017 11.442226 1.087664 0.157106 12.877948 2.150942 0.434510 12.559622 2.153663 0.421516 7.885872 10.348434 3.114744 -26.777175 -15.120820 11.319698 167.001662 -84.098071 11.507930 -13.469632 63.707074 29.656976 -40.854271 -18.464348 1.706633 1.390945 -9.840990 5.543758 165.569732 74.368322 -13.368168 -16.554832 -51.583201 -22.008155 -41.385963 21.354444 -1.938813 6.089314 9.621790 -6.736044 
85.210764 0.000000 -510.268919 0.000000 -11.388562 0.000000 -1.093819 91.074409 -0.535121 97.194060 0.646850 179.723157 162.035774 -6.459700 172.937603 -55.337881 -4.998065 1.909287 79.978454 -1.327022 -0.512141 21.454551 0.003092 -0.000001 177.528966 -2.219300 -175.879611 -30.369684 0.820246 -1.538852 84.870352 0.389587 -3.152988 21.454560 -0.003109 -0.000017 11.399517 1.091195 0.228730 12.793844 2.150261 0.576949 12.475527 2.153841 0.563957 7.894266 10.196883 2.989110 -26.757164 -14.910079 11.069779 168.633079 -84.045487 9.864154 -13.055532 63.778740 29.902069 -41.153767 -18.470501 1.715284 1.242358 -10.285506 5.432604 165.699965 74.321675 -13.236889 -16.757388 -51.310750 -22.135467 -42.356003 21.489672 -1.975302 6.194854 8.915764 -6.690838 
86.656696 0.000000 -510.148415 0.000000 -11.566693 0.000000 -1.140109 90.978905 -0.356280 97.084229 0.941078 179.990328 161.550089 -6.435625 172.902845 -51.214547 -4.874606 1.269283 80.299762 -0.810906 -0.228723 21.454550 0.003092 -0.000001 178.492231 -2.473288 -175.833934 -30.121470 0.964993 -1.560594 85.408254 0.407234 -3.182560 21.454559 -0.003108 -0.000018 11.357461 1.114476 0.290208 12.711089 2.190173 0.701352 12.392773 2.194503 0.688117 7.826244 10.069761 2.860572 -26.663871 -14.749619 10.837643 169.883538 -84.055181 8.602368 -12.791686 63.947880 29.906226 -41.389193 -18.428047 1.719067 1.141410 -10.610326 5.526942 165.839765 74.292059 -13.095128 -17.002379 -51.078995 -22.149770 -43.261477 21.644428 -2.011735 6.303468 8.136051 -6.355170 
88.118362 0.000000 -510.028938 0.000000 -11.736082 0.000000 -1.186170 90.858871 -0.180775 96.978213 1.265047 -179.730005 161.226820 -6.359498 172.706565 -46.789605 -4.535118 0.642114 80.361300 -0.290244 0.143291 21.454551 0.003092 0.000000 179.505226 -2.752198 -175.735358 -29.797529 1.094056 -1.604558 85.944966 0.437096 -3.228164 21.454558 -0.003107 -0.000018 11.316925 1.147497 0.343342 12.631390 2.250497 0.810189 12.313070 2.255483 0.796588 7.739365 9.946588 2.736289 -26.558529 -14.616839 10.623272 170.681002 -84.066360 7.797454 -12.639428 64.135174 29.864479 -41.505795 -18.388934 1.719635 1.145765 -10.854404 5.601363 165.915594 74.277873 -13.018153 -17.258067 -50.901748 -22.018707 -44.092562 21.777995 -2.045570 6.367995 7.293871 -5.880933 
89.594419 0.000000 -509.910216 0.000000 -11.896471 0.000000 -1.234445 90.736978 -0.013917 96.870384 1.573381 -179.480742 161.071328 -6.222839 172.323204 -42.028923 -4.026412 0.084876 79.991795 0.124270 0.301467 21.454552 0.003092 0.000000 -179.415014 -3.000557 -175.650895 -29.343030 1.235754 -1.663133 86.440621 0.472607 -3.290716 21.454557 -0.003107 -0.000018 11.276814 1.177889 0.392041 12.552485 2.306134 0.909868 12.234159 2.311721 0.895928 7.690427 9.808080 2.625353 -26.501936 -14.479396 10.423974 171.002716 -84.019552 7.474155 -12.571863 64.258220 29.964805 -41.445625 -18.401341 1.718686 1.283386 -11.053337 5.451102 165.871738 74.273745 -13.063156 -17.496465 -50.785088 -21.734408 -44.836217 21.856980 -2.073569 6.347258 6.406094 -5.436782 
91.083523 0.000000 -509.791979 0.000000 -12.047605 0.000000 -1.275881 90.604187 0.139765 96.733529 1.879330 -179.296393 161.039851 -6.071595 171.822315 -37.032602 -3.503225 -0.418667 79.273613 0.464464 0.289381 21.454553 0.003092 -0.000000 -178.326049 -3.234298 -175.624490 -28.826864 1.371855 -1.727575 86.925638 0.519036 -3.319469 21.454558 -0.003108 -0.000017 11.228287 1.204225 0.444035 12.456794 2.353483 1.015480 12.138466 2.359706 1.001251 7.659515 9.670569 2.533783 -26.444285 -14.311322 10.229251 171.267907 -83.949701 7.208654 -12.652336 64.343324 30.151958 -41.193785 -18.437300 1.714215 1.462608 -11.195049 5.169170 165.773881 74.269957 -13.163370 -17.720973 -50.721359 -21.394942 -45.430087 21.915994 -2.095535 6.192941 5.543513 -5.064902 
92.584333 0.000000 -509.673956 0.000000 -12.189234 0.000000 -1.303103 90.451807 0.277325 96.544807 2.198329 -179.195430 161.089023 -5.946584 171.324778 -31.919490 -3.119557 -0.921906 78.337964 0.787638 0.200275 21.454552 0.003091 0.000000 -177.280038 -3.473342 -175.676437 -28.314179 1.477889 -1.794084 87.422015 0.582104 -3.271898 21.454560 -0.003108 -0.000017 11.163380 1.226876 0.503868 12.328461 2.392913 1.135968 12.010137 2.399863 1.121498 7.616146 9.552490 2.464262 -26.321621 -14.101290 10.031258 171.866564 -83.900012 6.606294 -12.930266 64.431270 30.321615 -40.763306 -18.447456 1.703365 1.589825 -11.261819 4.905798 165.687042 74.261250 -13.252531 -17.940989 -50.703118 -21.098809 -45.811485 21.989787 -2.112197 5.848108 4.773881 -4.776831 
94.095505 0.000000 -509.555875 0.000000 -12.321108 0.000000 -1.326856 90.304260 0.401764 96.320062 2.495444 -179.139076 161.222545 -5.814191 171.062197 -26.768144 -2.934157 -1.467771 77.247676 1.112807 -0.026468 21.454551 0.003091 0.000001 -176.233538 -3.686601 -175.752638 -27.731658 1.552131 -1.876672 87.847481 0.660691 -3.190772 21.454562 -0.003108 -0.000017 11.085345 1.242348 0.559571 12.173707 2.418756 1.247146 11.855387 2.426379 1.232519 7.564572 9.445603 2.408767 -26.122923 -13.891859 9.838953 172.637005 -83.855717 5.830345 -13.305387 64.510431 30.419811 -40.236063 -18.373175 1.684069 1.688782 -11.256723 4.738598 165.551791 74.264267 -13.390745 -18.157490 -50.735894 -20.840711 -45.964061 22.045740 -2.120808 5.226401 4.098446 -4.589990 
95.615696 0.000000 -509.437465 0.000000 -12.442980 0.000000 -1.355448 90.182009 0.516106 96.089469 2.736672 -179.088605 161.449803 -5.633391 171.208801 -21.692850 -2.928528 -2.063330 76.074354 1.429204 -0.432629 21.454551 0.003091 0.000001 -175.131091 -3.842475 -175.801662 -27.013489 1.601977 -1.986008 88.128113 0.750881 -3.128379 21.454561 -0.003108 -0.000017 11.001208 1.246878 0.599981 12.006298 2.424596 1.326513 11.687978 2.432700 1.311850 7.517403 9.341235 2.358645 -25.856262 -13.723396 9.661582 173.309268 -83.802592 5.153335 -13.668477 64.566505 30.431821 -39.689268 -18.180265 1.656687 1.797766 -11.176779 4.688687 165.304415 74.291380 -13.642640 -18.364100 -50.822799 -20.602929 -45.899424 22.047442 -2.118932 4.301214 3.507369 -4.489419 
97.143563 0.000000 -509.318455 0.000000 -12.554605 0.000000 -1.369505 90.056572 0.617013 95.900900 2.941676 -179.064617 161.754589 -5.403397 171.597916 -16.998131 -2.890711 -2.556469 74.999028 1.661281 -0.828658 21.454553 0.003092 0.000001 -173.962405 -3.950395 -175.860419 -26.262261 1.646222 -2.102633 88.328074 0.840238 -3.088717 21.454560 -0.003108 -0.000017 10.921931 1.239642 0.633616 11.848287 2.407716 1.391245 11.529971 2.416212 1.376683 7.485699 9.255577 2.313519 -25.554897 -13.573240 9.494229 173.741966 -83.782703 4.716893 -14.027385 64.628887 30.445670 -39.111097 -17.941662 1.626268 1.894189 -10.975309 4.624936 164.991510 74.316737 -13.961561 -18.532980 -50.945007 -20.422376 -45.695242 22.010819 -2.110085 3.313870 3.017260 -4.330540 
